<svg id="BG" xmlns="http://www.w3.org/2000/svg" width="962" height="561" viewBox="0 0 962 561">
  <metadata><?xpacket begin="﻿" id="W5M0MpCehiHzreSzNTczkc9d"?>
<x:xmpmeta xmlns:x="adobe:ns:meta/" x:xmptk="Adobe XMP Core 5.6-c142 79.160924, 2017/07/13-01:06:39        ">
   <rdf:RDF xmlns:rdf="http://www.w3.org/1999/02/22-rdf-syntax-ns#">
      <rdf:Description rdf:about=""/>
   </rdf:RDF>
</x:xmpmeta>
                                                                                                    
                                                                                                    
                                                                                                    
                                                                                                    
                                                                                                    
                                                                                                    
                                                                                                    
                                                                                                    
                                                                                                    
                                                                                                    
                                                                                                    
                                                                                                    
                                                                                                    
                                                                                                    
                                                                                                    
                                                                                                    
                                                                                                    
                                                                                                    
                                                                                                    
                                                                                                    
                           
<?xpacket end="w"?></metadata>
<defs>
    <style>
      .cls-1 {
        fill: #0674ec;
      }

      .cls-2, .cls-3, .cls-4, .cls-5 {
        fill: #002dd4;
        fill-rule: evenodd;
      }

      .cls-2 {
        opacity: 0.3;
      }

      .cls-3 {
        opacity: 0.1;
      }

      .cls-4 {
        opacity: 0.2;
      }

      .cls-5 {
        opacity: 0.15;
      }
    </style>
  </defs>
  <rect id="BG-2" data-name="BG" class="cls-1" width="960" height="561"/>
  <path class="cls-2" d="M0.991,7206.91s119.627,13.45,234.269-44.85c0,0,129.6-70.65,324.986,16.81,0,0,133.584,69.53,321-20.18,0,0,36.885-23.55,78.755-3.36v60.55H-0.006Z" transform="translate(0 -6656)"/>
  <path class="cls-3" d="M-1,6935.11S328,7395.89,959,6874v343H-1V6935.11Z" transform="translate(0 -6656)"/>
  <path id="Shape_3_copy" data-name="Shape 3 copy" class="cls-3" d="M959,7032.69S429,7305.71-1,6874v343H959V7032.69Z" transform="translate(0 -6656)"/>
  <path class="cls-4" d="M1.993,7091.52s86.091,5.6,216.228-43.74c0,0,156.165-66.17,353.374,21.31,0,0,223.236,91.96,389.411-16.82V7216H-0.009Z" transform="translate(0 -6656)"/>
  <path class="cls-5" d="M0,7024.5s100.9-49.32,240.752,17.93c0,0,153.842,82.94,288.7,25.78,0,0,271.721-122.17,430.557-20.17v166.99H1.995Z" transform="translate(0 -6656)"/>
  <path class="cls-3" d="M0,6996.12s154.84-48.24,296.693,62.82c0,0,141.854,106.58,303.687,2.24,0,0,169.824-139.1,361.626-70.67V7216H1Z" transform="translate(0 -6656)"/>
</svg>
