<svg id="BG" xmlns="http://www.w3.org/2000/svg" width="963" height="561" viewBox="0 0 963 561">
  <metadata><?xpacket begin="﻿" id="W5M0MpCehiHzreSzNTczkc9d"?>
<x:xmpmeta xmlns:x="adobe:ns:meta/" x:xmptk="Adobe XMP Core 5.6-c142 79.160924, 2017/07/13-01:06:39        ">
   <rdf:RDF xmlns:rdf="http://www.w3.org/1999/02/22-rdf-syntax-ns#">
      <rdf:Description rdf:about=""/>
   </rdf:RDF>
</x:xmpmeta>
                                                                                                    
                                                                                                    
                                                                                                    
                                                                                                    
                                                                                                    
                                                                                                    
                                                                                                    
                                                                                                    
                                                                                                    
                                                                                                    
                                                                                                    
                                                                                                    
                                                                                                    
                                                                                                    
                                                                                                    
                                                                                                    
                                                                                                    
                                                                                                    
                                                                                                    
                                                                                                    
                           
<?xpacket end="w"?></metadata>
<defs>
    <style>
      .cls-1 {
        fill: #7347c1;
      }

      .cls-2, .cls-3, .cls-4, .cls-5 {
        fill: #600a91;
        fill-rule: evenodd;
      }

      .cls-2 {
        opacity: 0.3;
      }

      .cls-3 {
        opacity: 0.1;
      }

      .cls-4 {
        opacity: 0.2;
      }

      .cls-5 {
        opacity: 0.15;
      }
    </style>
  </defs>
  <rect id="BG-2" data-name="BG" class="cls-1" x="3" width="960" height="561"/>
  <path id="Shape_6_copy" data-name="Shape 6 copy" class="cls-2" d="M958.991,7206.91s119.629,13.45,234.269-44.85c0,0,129.6-70.65,324.99,16.81,0,0,133.58,69.53,321-20.18,0,0,36.88-23.55,78.75-3.36v60.55H957.994Z" transform="translate(-957 -6656)"/>
  <path id="Shape_3_copy_3" data-name="Shape 3 copy 3" class="cls-3" d="M957,6935.11s329,460.78,960-61.11v343H957V6935.11Z" transform="translate(-957 -6656)"/>
  <path id="Shape_3_copy_2" data-name="Shape 3 copy 2" class="cls-3" d="M1917,7032.69S1387,7305.71,957,6874v343h960V7032.69Z" transform="translate(-957 -6656)"/>
  <path id="Shape_9_copy" data-name="Shape 9 copy" class="cls-4" d="M959.993,7091.52s86.087,5.6,216.227-43.74c0,0,156.17-66.17,353.37,21.31,0,0,223.24,91.96,389.42-16.82V7216H957.991Z" transform="translate(-957 -6656)"/>
  <path id="Shape_10_copy" data-name="Shape 10 copy" class="cls-5" d="M958,7024.5s100.893-49.32,240.753,17.93c0,0,153.84,82.94,288.7,25.78,0,0,271.72-122.17,430.56-20.17v166.99H960Z" transform="translate(-957 -6656)"/>
  <path id="Shape_11_copy" data-name="Shape 11 copy" class="cls-3" d="M958,6996.12s154.843-48.24,296.693,62.82c0,0,141.85,106.58,303.69,2.24,0,0,169.82-139.1,361.62-70.67V7216H959Z" transform="translate(-957 -6656)"/>
</svg>
